<?xml version="1.0" encoding="UTF-8"?>
<svg id="Layer_1" data-name="Layer 1" xmlns="http://www.w3.org/2000/svg" viewBox="0 0 135.72 96.12">
  <defs>
    <style>
      .cls-1 {
        fill: #009ddd;
      }

      .cls-2 {
        fill: #f7bb3a;
      }
    </style>
  </defs>
  <path class="cls-1" d="M60.44,18.17c.6.93.9.51,1.05,2.22.63,7.15.36,18.49,0,25.8-.08,1.62-.57,3.35-.43,5.07l-29,34.94H4.01c13.56-16.71,27.5-33.12,41.28-49.65.51-.61.81-1.6,1.04-1.88.04-.05.56-.04.83-.36,4.46-5.35,8.85-10.76,13.27-16.13"/>
  <path class="cls-1" d="M95.87,17.49s.84-.19.72.49l-.1,32.59-29.69,35.63h-27.69c13.81-17.24,28.18-34.06,42.33-51.02.25-.3.25-.76.33-.86.23-.28.84-.58,1.21-1.02,4.36-5.22,8.77-10.41,12.9-15.81"/>
  <path class="cls-1" d="M131.3,17.84c.11.29.54.63.37,1.16l-.11,31.56c-.66,1.13-1.53,2.14-2.33,3.17-7.77,9.88-17.87,22.73-26.5,31.62-.21.22-.31.55-.33.85h-28.21c14.3-17.32,28.63-34.62,43.01-51.88,4.62-5.55,9.24-11.2,14.11-16.49"/>
  <path class="cls-2" d="M60.44,18.17c-4.43,5.37-8.82,10.78-13.27,16.13-.27.32-.79.31-.83.36L25.7,9.92h28.03c2.11,2.79,4.81,5.33,6.71,8.25"/>
  <path class="cls-2" d="M95.87,17.49c-4.13,5.4-8.54,10.59-12.9,15.81-.37.44-.98.74-1.21,1.02l-20.29-24.4h28.38c1.36,1.9,3.19,3.56,4.63,5.34.57.7.98,1.7,1.39,2.22"/>
  <path class="cls-2" d="M117.2,34.33l-20.64-24.4h28.55c1.16,2.59,5.27,5.35,6.19,7.91-4.86,5.29-9.49,10.94-14.11,16.49"/>
</svg>