<?xml version="1.0" encoding="UTF-8"?>
<svg id="Layer_1" data-name="Layer 1" xmlns="http://www.w3.org/2000/svg" viewBox="0 0 455 97">
  <defs>
    <style>
      .cls-1 {
        fill: #009ede;
      }

      .cls-2 {
        fill: #f7bb3d;
      }

      .cls-3 {
        fill: #f7bb3f;
      }

      .cls-4 {
        fill: #009ddd;
      }

      .cls-5 {
        fill: #f7bb3a;
      }
    </style>
  </defs>
  <g>
    <path class="cls-4" d="M63.43,21.58c.6.93.9.51,1.05,2.22.63,7.15.36,18.49,0,25.8-.08,1.62-.57,3.35-.43,5.07l-29,34.94H7c13.56-16.71,27.5-33.12,41.28-49.65.51-.61.81-1.6,1.04-1.88.04-.05.56-.04.83-.36,4.46-5.35,8.85-10.76,13.27-16.13"/>
    <path class="cls-4" d="M98.86,20.9s.84-.19.72.49l-.1,32.59-29.69,35.63h-27.69c13.81-17.24,28.18-34.06,42.33-51.02.25-.3.25-.76.33-.86.23-.28.84-.58,1.21-1.02,4.36-5.22,8.77-10.41,12.9-15.81"/>
    <path class="cls-4" d="M134.29,21.25c.11.29.54.63.37,1.16l-.11,31.56c-.66,1.13-1.53,2.14-2.33,3.17-7.77,9.88-17.87,22.73-26.5,31.62-.21.22-.31.55-.33.85h-28.21c14.3-17.32,28.63-34.62,43.01-51.88,4.62-5.55,9.24-11.2,14.11-16.49"/>
    <path class="cls-5" d="M63.43,21.58c-4.43,5.37-8.82,10.78-13.27,16.13-.27.32-.79.31-.83.36L28.68,13.33h28.03c2.11,2.79,4.81,5.33,6.71,8.25"/>
    <path class="cls-5" d="M98.86,20.9c-4.13,5.4-8.54,10.59-12.9,15.81-.37.44-.98.74-1.21,1.02l-20.29-24.4h28.38c1.36,1.9,3.19,3.56,4.63,5.34.57.7.98,1.7,1.39,2.22"/>
    <path class="cls-5" d="M120.18,37.74l-20.64-24.4h28.55c1.16,2.59,5.27,5.35,6.19,7.91-4.86,5.29-9.49,10.94-14.11,16.49"/>
  </g>
  <g>
    <path class="cls-1" d="M327.75,70.25h-10.15s-9.44-22.65-9.44-22.65l-9.21,22.64h-9.91c-.09-.67.03-1.26.22-1.9,2.68-9.2,9.83-19.71,12.91-29.09,2.51-4.18,9.52-4.12,12.1-.09l13.5,31.09Z"/>
    <path class="cls-1" d="M186.07,70.23h-10.15s-9.44-22.65-9.44-22.65l-8.97,22.18c-.84,1-4.5.23-5.91.46v-11.08s9.71-20.96,9.71-20.96c2.28-2.55,7.65-2.67,10.15-.28,5.58,10.36,9.86,21.53,14.61,32.33"/>
    <path class="cls-1" d="M242.27,50.9v19.34s-9.21,0-9.21,0c-.05,0-.71-.66-.71-.71v-17.92c0-.05.66-.71.71-.71h9.21Z"/>
    <path class="cls-1" d="M287.6,70.24h-10.62c-1.21,0-6.09-9.4-7.32-10.14-1.02-.62-3.04-.07-4.25-.24v9.67s-.66.7-.71.7h-9.21s0-17.92,0-17.92h18.66c2.66,0,4.4-7.22-.5-7.99l-74.96.05c-2.66,1.55-2.4,4.27.84,4.62,5.15.56,12.81-1.17,17.01,2.84,4.16,3.98,3.39,13.56-1.8,16.6-1.07.63-4.68,1.79-5.76,1.79h-20.54s0-8.02,0-8.02h18.66c2.34-.48,3.02-3.92.7-4.94-2.47-1.09-10.02.28-14.17-.95-5.17-1.53-7.23-6.68-6.55-11.38,0,0,.18-9.37,9.91-9.32,6.08.03,35.04.02,55.96.02h5.38c9.86,0,16.88,0,16.88,0,0,0,4.91.36,8.57,4.59.02.03.04.04.06.07,3.72,3.96,3.98,10.58.25,14.86-1,1.15-3.84,2.68-3.96,2.89-.12.2-.15.39-.08.6l7.56,11.59Z"/>
    <path class="cls-5" d="M402.31,54.14v-17.97c3.72.13,8.09-1.13,9.62,3.26-.54,8.36,1.07,18.46.11,26.62-.5,4.29-5.11,5.41-8.75,4.35l-15.56-18.69v18.94s-9.73,0-9.73,0v-34.47s8.03,0,8.03,0c1.12,0,3.08,2.07,3.89,2.91,4.31,4.45,7.81,10.7,12.39,15.06"/>
    <path class="cls-2" d="M445.57,43.95h-18.96s0,5.34,0,5.34h17.5s0,7.77,0,7.77h-17.5s0,5.34,0,5.34h19.44c.48,4.98-1.57,7.75-6.57,8.25-3.6.36-13.24.4-16.49-.51-1.9-.53-6.11-3.61-6.1-5.55v-28.89s24.07,0,24.07,0c.17,0,2.33,1,2.65,1.23,2.54,1.82,1.96,4.25,1.96,7.02"/>
    <path class="cls-3" d="M341.54,61.9h12.88c4,0,5.96,8.74,3.89,8.74h-21.88c-1.51,0-5.1-3.17-5.1-4.61v-30.35c2.92-.49,10.22.02,10.21,4.13v22.09Z"/>
    <path class="cls-5" d="M373.14,70.64h-9.72s0-34.96,0-34.96c2.53.08,6.13-.47,8.24,1.24.2.16,1.48,1.79,1.48,1.91v31.8Z"/>
  </g>
</svg>