<?xml version="1.0" encoding="UTF-8"?>
<svg id="Layer_1" data-name="Layer 1" xmlns="http://www.w3.org/2000/svg" viewBox="0 0 301 138">
  <defs>
    <style>
      .cls-1 {
        fill: #ffffff;
      }

      .cls-2 {
        fill: #f7bb3d;
      }

      .cls-3 {
        fill: #f7bb3f;
      }

      .cls-4 {
        fill: #ffffff;
      }

      .cls-5 {
        fill: #f7bb3a;
      }
    </style>
  </defs>
  <g>
    <path class="cls-4" d="M143.7,18.52c.6.93.9.51,1.05,2.22.63,7.15.36,18.49,0,25.8-.08,1.62-.57,3.35-.43,5.07l-29,34.94h-28.04c13.56-16.71,27.5-33.12,41.28-49.65.51-.61.81-1.6,1.04-1.88.04-.05.56-.04.83-.36,4.46-5.35,8.85-10.76,13.27-16.13"/>
    <path class="cls-4" d="M179.13,17.84s.84-.19.72.49l-.1,32.59-29.69,35.63h-27.69c13.81-17.24,28.18-34.06,42.33-51.02.25-.3.25-.76.33-.86.23-.28.84-.58,1.21-1.02,4.36-5.22,8.77-10.41,12.9-15.81"/>
    <path class="cls-4" d="M214.56,18.19c.11.29.54.63.37,1.16l-.11,31.56c-.66,1.13-1.53,2.14-2.33,3.17-7.77,9.88-17.87,22.73-26.5,31.62-.21.22-.31.55-.33.85h-28.21c14.3-17.32,28.63-34.62,43.01-51.88,4.62-5.55,9.24-11.2,14.11-16.49"/>
    <path class="cls-5" d="M143.7,18.52c-4.43,5.37-8.82,10.78-13.27,16.13-.27.32-.79.31-.83.36l-20.64-24.74h28.03c2.11,2.79,4.81,5.33,6.71,8.25"/>
    <path class="cls-5" d="M179.13,17.84c-4.13,5.4-8.54,10.59-12.9,15.81-.37.44-.98.74-1.21,1.02l-20.29-24.4h28.38c1.36,1.9,3.19,3.56,4.63,5.34.57.7.98,1.7,1.39,2.22"/>
    <path class="cls-5" d="M200.46,34.68l-20.64-24.4h28.55c1.16,2.59,5.27,5.35,6.19,7.91-4.86,5.29-9.49,10.94-14.11,16.49"/>
  </g>
  <g>
    <path class="cls-1" d="M179.31,129.45h-9.91s-9.22-22.1-9.22-22.1l-8.99,22.1h-9.67c-.08-.65.03-1.23.21-1.86,2.61-8.98,9.59-19.24,12.6-28.38,2.45-4.08,9.29-4.02,11.8-.09l13.17,30.34Z"/>
    <path class="cls-1" d="M41.06,129.42h-9.91s-9.22-22.1-9.22-22.1l-8.75,21.64c-.82.98-4.39.22-5.77.45v-10.81s9.48-20.46,9.48-20.46c2.22-2.49,7.46-2.61,9.9-.28,5.45,10.11,9.62,21.01,14.26,31.55"/>
    <path class="cls-1" d="M95.9,110.56v18.87s-8.99,0-8.99,0c-.05,0-.69-.64-.69-.69v-17.49c0-.05.65-.69.69-.69h8.99Z"/>
    <path class="cls-1" d="M140.14,129.44h-10.37c-1.18,0-5.94-9.17-7.14-9.89-1-.6-2.97-.07-4.15-.24v9.44s-.64.69-.69.69h-8.99s0-17.49,0-17.49h18.21c2.59,0,4.29-7.05-.49-7.79l-73.15.05c-2.59,1.51-2.35,4.17.82,4.51,5.03.54,12.5-1.14,16.6,2.77,4.06,3.88,3.31,13.23-1.75,16.2-1.04.62-4.56,1.74-5.63,1.74h-20.04s0-7.83,0-7.83h18.21c2.28-.47,2.94-3.82.68-4.82-2.42-1.06-9.78.27-13.83-.93-5.05-1.49-7.05-6.52-6.4-11.11,0,0,.17-9.14,9.67-9.09,5.93.02,34.2.02,54.61.02h5.25c9.62,0,16.47,0,16.47,0,0,0,4.79.35,8.37,4.48.02.03.04.04.06.07,3.63,3.87,3.88,10.33.24,14.5-.98,1.13-3.74,2.62-3.86,2.82-.11.19-.15.38-.07.59l7.38,11.31Z"/>
    <path class="cls-1" d="M192.76,129.49h-8.31s0-17.53,0-17.53h8.31s0,17.53,0,17.53Z"/>
    <path class="cls-1" d="M249.84,129.49h-8.16s0-17.53,0-17.53h8.16s0,17.53,0,17.53Z"/>
    <path class="cls-1" d="M294.88,129.52h-29.13s0-7.66,0-7.66c0-.05.65-.7.7-.7h19.65s0-9.18,0-9.18l8.79-.05v17.58Z"/>
    <path class="cls-1" d="M286.02,104.16l-20.26.04v-8.4s20.3,0,20.3,0l-.04,8.36Z"/>
    <path class="cls-1" d="M219.04,129.49h-8.16s0-31.77,0-31.77c4.61-2.39,14.18-2.84,18.44.99l10.58,13.34v17.39s-8.56,0-8.56,0l-.14-13.39-12.16-14.94v28.38Z"/>
    <path class="cls-1" d="M95.9,104.16l-8.99-.04v-8.29s8.99,0,8.99,0v8.33Z"/>
    <path class="cls-1" d="M192.76,104.16l-8.31-.04v-8.29s8.31,0,8.31,0v8.33Z"/>
  </g>
</svg>
